<svg xmlns="http://www.w3.org/2000/svg" xmlns:xlink="http://www.w3.org/1999/xlink" width="500" zoomAndPan="magnify" viewBox="0 0 375 374.999991" height="500" preserveAspectRatio="xMidYMid meet" version="1.0"><defs><clipPath id="8c842c19df"><path d="M 37.5 93 L 337.5 93 L 337.5 313 L 37.5 313 Z M 37.5 93 " clip-rule="nonzero"/></clipPath></defs><rect x="-37.5" width="450" fill="#ffffff" y="-37.499999" height="449.999989" fill-opacity="1"/><rect x="-37.5" width="450" fill="#ffffff" y="-37.499999" height="449.999989" fill-opacity="1"/><rect x="-37.5" width="450" fill="#000000" y="-37.499999" height="449.999989" fill-opacity="1"/><g clip-path="url(#8c842c19df)"><path fill="#ffffff" d="M 335.132812 147.171875 C 333.191406 142.976562 329.488281 139.394531 324.9375 138.480469 C 320.386719 137.570312 315.167969 139.820312 313.410156 144.070312 C 311.773438 148.082031 313.289062 152.640625 313.652344 157.015625 C 314.257812 164.125 311.347656 171.417969 306.3125 176.402344 C 304.246094 172.996094 301.941406 169.777344 299.515625 166.617188 C 295.875 161.9375 291.867188 157.5625 287.621094 153.492188 C 281.613281 147.71875 261.527344 138.90625 261.527344 138.90625 C 260.074219 125.539062 257.828125 115.753906 255.035156 108.707031 C 242.71875 77.53125 219.722656 100.441406 209.34375 113.261719 C 206.066406 117.335938 204.066406 120.3125 204.066406 120.3125 C 198.90625 116.664062 193.507812 113.808594 187.863281 111.621094 C 147.753906 95.824219 99.394531 112.714844 99.394531 112.714844 C 43.265625 59.421875 53.824219 153.492188 53.824219 153.492188 L 44.964844 175.914062 C 44.113281 179.558594 43.265625 183.265625 42.414062 186.914062 C 41.324219 192.078125 40.351562 197.304688 39.503906 202.46875 C 38.289062 210.308594 37.5625 218.207031 37.683594 226.167969 C 37.925781 245.128906 43.386719 264.757812 56.371094 278.550781 C 56.917969 279.097656 57.464844 279.707031 58.011719 280.253906 C 70.023438 291.980469 86.527344 298.058594 102.792969 302.433594 C 143.992188 313.554688 187.5625 315.921875 229.734375 309.359375 C 234.527344 308.628906 239.382812 307.71875 244.113281 306.6875 C 262.984375 302.492188 281.25 295.382812 295.207031 282.316406 C 295.875 281.710938 296.542969 281.101562 297.148438 280.433594 C 308.738281 268.765625 316.261719 253.210938 318.992188 236.925781 C 320.144531 230.179688 320.449219 223.375 319.902344 216.566406 C 319.417969 210.246094 318.144531 204.109375 316.261719 198.15625 C 328.09375 189.527344 336.105469 175.550781 337.074219 160.84375 C 337.4375 156.164062 337.074219 151.363281 335.132812 147.171875 Z M 335.132812 147.171875 " fill-opacity="1" fill-rule="nonzero"/></g><path fill="#ffffff" d="M 248.847656 118.855469 C 246.417969 128.578125 251.03125 139.210938 247.9375 148.75 C 244.660156 158.898438 233.433594 164.488281 222.816406 165.523438 C 212.195312 166.554688 201.578125 164.125 190.898438 163.699219 C 180.21875 163.335938 168.566406 165.523438 161.652344 173.605469 C 155.945312 180.289062 154.671875 189.464844 152.304688 198.035156 C 151.882812 199.492188 151.457031 201.011719 150.910156 202.410156 C 142.234375 226.777344 111.773438 240.691406 87.683594 231.273438 C 70.875 224.710938 59.222656 209.519531 48.421875 194.996094 C 46.421875 192.320312 44.476562 189.648438 42.476562 186.972656 C 43.265625 183.265625 44.113281 179.621094 45.023438 175.976562 L 53.882812 153.550781 C 53.882812 153.550781 43.324219 59.484375 99.453125 112.714844 C 99.453125 112.714844 147.816406 95.824219 187.925781 111.621094 C 193.566406 113.808594 198.96875 116.664062 204.125 120.3125 C 204.125 120.3125 206.128906 117.273438 209.40625 113.261719 C 219.722656 100.441406 242.777344 77.53125 255.097656 108.707031 C 252.0625 111.378906 249.816406 114.902344 248.847656 118.855469 Z M 248.847656 118.855469 " fill-opacity="1" fill-rule="nonzero"/><path fill="#ffffff" d="M 106.007812 187.765625 C 106.007812 194.144531 100.847656 199.308594 94.476562 199.308594 C 88.105469 199.308594 82.949219 194.144531 82.949219 187.765625 C 82.949219 181.382812 88.105469 176.21875 94.476562 176.21875 C 100.847656 176.21875 106.007812 181.382812 106.007812 187.765625 Z M 202.246094 176.21875 C 195.875 176.21875 190.714844 181.382812 190.714844 187.765625 C 190.714844 194.144531 195.875 199.308594 202.246094 199.308594 C 208.617188 199.308594 213.773438 194.144531 213.773438 187.765625 C 213.773438 181.382812 208.617188 176.21875 202.246094 176.21875 Z M 157.828125 199.492188 C 160.375 199.066406 162.742188 197.609375 164.199219 195.480469 C 165.714844 193.355469 166.261719 190.679688 165.835938 188.128906 C 165.777344 187.765625 165.414062 187.460938 165.046875 187.582031 C 164.683594 187.640625 164.441406 188.007812 164.503906 188.371094 C 164.867188 190.558594 164.382812 192.867188 163.105469 194.691406 C 161.832031 196.515625 159.769531 197.789062 157.644531 198.09375 C 154.914062 198.519531 151.882812 197.488281 149.9375 195.359375 C 148.058594 193.292969 147.269531 190.011719 147.875 187.15625 C 147.9375 186.792969 147.695312 186.425781 147.332031 186.304688 C 146.964844 186.246094 146.601562 186.488281 146.480469 186.851562 C 145.753906 190.132812 146.722656 193.902344 148.90625 196.269531 C 150.789062 198.335938 153.582031 199.554688 156.371094 199.554688 C 156.796875 199.613281 157.34375 199.613281 157.828125 199.492188 Z M 143.933594 197.546875 C 146.722656 195.054688 148.117188 190.984375 147.574219 186.972656 C 147.511719 186.609375 147.148438 186.304688 146.785156 186.367188 C 146.421875 186.425781 146.117188 186.792969 146.175781 187.15625 C 146.664062 190.679688 145.449219 194.265625 142.960938 196.515625 C 140.414062 198.824219 136.46875 199.429688 133.554688 197.972656 C 130.523438 196.453125 128.882812 192.6875 129.914062 189.585938 C 130.035156 189.222656 129.855469 188.796875 129.492188 188.675781 C 129.125 188.554688 128.703125 188.734375 128.582031 189.101562 C 127.304688 192.808594 129.246094 197.304688 132.886719 199.1875 C 134.164062 199.855469 135.558594 200.160156 137.015625 200.160156 C 139.503906 200.160156 141.992188 199.25 143.933594 197.546875 Z M 143.933594 197.546875 " fill-opacity="1" fill-rule="nonzero"/><path fill="#ffffff" d="M 319.113281 236.863281 C 316.382812 253.148438 308.917969 268.707031 297.269531 280.375 C 296.664062 281.042969 295.996094 281.648438 295.328125 282.257812 C 281.3125 295.324219 263.046875 302.433594 244.234375 306.625 C 243.992188 306.382812 243.75 306.140625 243.507812 305.894531 C 236.164062 298.238281 234.707031 284.019531 243.265625 277.699219 C 250.789062 272.046875 262.5 274.660156 269.660156 268.585938 C 279.671875 260.078125 273.300781 242.699219 280.15625 231.457031 C 283.554688 225.988281 289.988281 222.707031 296.359375 222.644531 C 302.792969 222.582031 309.042969 225.441406 313.652344 229.9375 C 315.777344 231.941406 317.535156 234.3125 319.113281 236.863281 Z M 319.113281 236.863281 " fill-opacity="1" fill-rule="nonzero"/></svg>